<?xml version="1.0" standalone="no"?>
<!DOCTYPE svg PUBLIC "-//W3C//DTD SVG 20010904//EN"
 "http://www.w3.org/TR/2001/REC-SVG-20010904/DTD/svg10.dtd">
<svg version="1.0" xmlns="http://www.w3.org/2000/svg"
 width="4000.000000pt" height="4000.000000pt" viewBox="0 0 4000.000000 4000.000000"
 preserveAspectRatio="xMidYMid meet">

<g transform="translate(0.000000,4000.000000) scale(0.100000,-0.100000)"
fill="#000000" stroke="none">
<path d="M0 20000 l0 -20000 20000 0 20000 0 0 20000 0 20000 -20000 0 -20000
0 0 -20000z m39990 0 l0 -19990 -19990 0 -19990 0 0 19990 0 19990 19990 0
19990 0 0 -19990z"/>
<path d="M15059 33554 c-9 -11 -70 -95 -136 -189 -206 -293 -321 -488 -497
-844 -414 -838 -659 -1702 -741 -2616 -23 -247 -30 -674 -16 -904 7 -106 11
-195 9 -196 -2 -2 -133 159 -292 357 -232 290 -290 358 -298 345 -31 -57 -175
-421 -203 -517 -179 -604 -174 -1290 15 -1957 21 -76 38 -138 37 -139 -1 -1
-681 717 -1512 1594 -3309 3495 -3718 3927 -3725 3930 -12 5 -61 -569 -67
-793 -25 -996 184 -2178 552 -3120 206 -526 467 -1037 737 -1437 32 -49 55
-88 50 -88 -4 0 -221 86 -482 190 -260 105 -475 188 -478 185 -9 -9 49 -466
74 -589 92 -438 284 -878 566 -1299 334 -498 811 -951 1368 -1300 73 -45 128
-83 123 -84 -4 -1 -196 24 -425 55 l-418 58 0 -140 c0 -294 67 -560 216 -857
266 -532 740 -952 1391 -1235 80 -34 147 -64 149 -66 2 -3 -108 -15 -244 -27
-136 -13 -248 -24 -250 -25 -1 -2 15 -73 37 -159 45 -179 99 -302 196 -447
335 -501 953 -843 1770 -979 229 -38 597 -71 802 -71 l81 0 -105 -206 c-226
-441 -371 -805 -498 -1249 -296 -1034 -334 -2109 -115 -3220 68 -343 131 -582
260 -990 43 -137 122 -397 174 -576 631 -2158 1484 -4475 2270 -6163 199 -427
672 -1363 683 -1352 2 2 43 108 92 237 117 309 146 439 172 769 12 157 6 741
-10 890 -5 47 -8 86 -6 88 1 2 225 -286 496 -639 537 -700 538 -701 539 -679
0 8 14 130 30 270 59 503 62 983 10 1530 -83 875 -301 1805 -608 2602 -17 43
-29 78 -28 78 2 0 122 -128 267 -285 145 -156 264 -283 265 -282 1 1 10 131
19 288 21 380 6 599 -66 945 -63 303 -198 711 -310 936 -16 32 -29 59 -29 62
0 2 139 -72 308 -164 169 -93 316 -172 326 -176 18 -7 18 3 13 237 -3 164 -10
273 -22 334 -169 914 -821 1798 -1852 2511 l-132 91 42 13 c23 6 89 33 147 59
515 229 1007 728 1582 1601 247 374 467 751 908 1550 602 1094 756 1335 1062
1667 350 382 777 688 1153 828 292 109 579 122 809 39 64 -23 1561 -546 1781
-622 50 -17 441 -152 869 -301 429 -149 781 -270 782 -268 2 2 -716 511 -1596
1132 -1451 1025 -1601 1133 -1617 1170 -28 62 -146 257 -219 362 -253 362
-569 668 -903 870 -299 182 -593 284 -941 329 -132 16 -434 18 -565 4 -445
-50 -922 -209 -1372 -458 -61 -34 -115 -62 -120 -62 -4 0 -28 121 -52 268 -89
546 -229 1186 -382 1745 -44 161 -160 614 -258 1007 -188 752 -1596 6430
-1615 6514 -10 46 -12 47 -27 30z m109 -2179 c1091 -4145 1313 -4997 1306
-5004 -2 -3 -43 1 -89 7 -439 64 -832 415 -1128 1007 -372 746 -630 1919 -732
3325 -21 296 -38 707 -30 738 38 154 393 909 416 885 4 -4 120 -435 257 -958z
m-4518 -2734 c2161 -2216 2420 -2486 2405 -2497 -32 -23 -183 -73 -287 -95
-121 -25 -326 -29 -453 -10 -758 116 -1633 781 -2626 1996 -403 494 -857 1133
-1221 1720 -169 273 -163 258 -187 435 -29 213 -49 436 -56 615 -3 83 -8 190
-11 238 -3 50 -1 87 4 85 5 -1 1099 -1121 2432 -2487z m2955 -656 l227 -270
-5 -50 c-3 -27 -13 -111 -22 -185 -36 -300 -36 -720 0 -967 34 -228 102 -445
184 -586 22 -37 36 -65 31 -62 -31 19 -272 358 -370 519 -360 598 -455 1102
-324 1730 31 150 34 160 44 150 4 -5 110 -130 235 -279z m-4249 -1845 c207
-77 378 -141 379 -142 1 -2 42 -82 92 -178 201 -391 426 -751 650 -1041 109
-142 353 -389 452 -457 41 -29 72 -52 68 -52 -3 0 -77 30 -164 66 -915 380
-1453 852 -1726 1514 -63 153 -152 430 -137 430 5 0 178 -63 386 -140z m7284
-335 c155 -588 283 -1194 375 -1772 19 -120 35 -228 35 -239 0 -14 -14 -31
-41 -48 l-41 -27 -66 70 c-178 191 -328 468 -447 827 -77 231 -150 546 -185
800 -12 79 -11 82 15 135 39 76 108 182 173 264 55 70 134 157 138 152 1 -1
21 -74 44 -162z m-2781 -455 c414 -443 850 -956 1235 -1452 79 -102 79 -102
-73 -68 -219 49 -473 172 -703 342 -310 230 -671 593 -931 938 l-57 75 0 95
c0 145 30 386 61 505 l11 40 152 -155 c83 -85 221 -229 305 -320z m2278 -312
c-3 -8 -6 -5 -6 6 -1 11 2 17 5 13 3 -3 4 -12 1 -19z m3270 -963 c403 -53 779
-225 1108 -507 235 -201 471 -497 622 -778 46 -86 80 -168 55 -131 -5 7 -14
11 -20 7 -5 -3 -16 2 -23 11 -10 12 -10 14 -1 9 8 -5 12 -1 12 11 -1 25 -25
54 -41 50 -8 -2 -11 -2 -7 0 12 7 -17 55 -52 87 -26 24 -33 26 -48 15 -15 -13
-16 -12 -3 4 13 16 12 20 -4 35 -10 9 -15 12 -12 7 3 -6 1 -17 -4 -25 -8 -12
-9 -11 -7 5 2 11 -2 19 -8 18 -7 -1 -11 5 -10 15 1 11 -6 16 -17 15 -10 0 -16
1 -13 4 8 9 -15 27 -86 67 -37 21 -73 34 -79 30 -8 -4 -9 -3 -5 4 6 11 3 13
-19 12 -3 0 -19 7 -35 15 -17 9 -30 13 -30 10 0 -3 -11 2 -25 11 -14 9 -25 13
-25 9 0 -4 -7 -2 -15 5 -8 6 -34 12 -59 13 -24 1 -42 5 -40 8 4 7 -107 29
-147 29 -14 0 -31 -6 -39 -12 -11 -11 -11 -9 0 6 14 18 10 19 -152 14 -91 -3
-170 -8 -176 -12 -12 -7 -135 -35 -180 -40 -18 -2 -40 -10 -49 -18 -14 -11
-16 -11 -8 1 6 10 4 12 -6 6 -7 -5 -25 -10 -39 -11 -14 -2 -41 -5 -60 -8 -228
-32 -793 -26 -850 9 -9 5 -11 4 -6 -3 4 -7 3 -12 -3 -12 -5 0 -11 5 -13 11 -2
6 -17 12 -33 13 -17 1 -34 4 -40 7 -5 4 -22 9 -37 13 -20 5 -28 2 -31 -11 -4
-15 -5 -15 -6 2 -1 16 -13 24 -48 35 -27 7 -56 13 -66 12 -9 0 -15 3 -12 9 4
5 0 9 -8 9 -8 0 -56 21 -106 46 -50 25 -96 42 -103 38 -7 -4 -8 -3 -4 4 8 14
-61 45 -81 37 -9 -3 -11 0 -7 7 5 7 0 9 -14 6 -14 -4 -20 -2 -15 5 4 6 -2 8
-15 5 -12 -4 -22 -2 -22 4 0 6 -6 8 -14 5 -8 -3 -17 -3 -21 1 -4 4 -10 7 -13
8 -4 0 -20 3 -37 7 -64 14 -195 18 -195 5 0 -9 -3 -9 -12 0 -14 14 -32 16 -24
4 3 -5 -15 -7 -41 -5 -35 4 -43 2 -37 -9 6 -10 5 -11 -8 -1 -8 7 -18 10 -22 6
-3 -4 -25 -8 -48 -9 -22 -2 -44 -6 -47 -11 -3 -4 -26 -9 -50 -10 -24 -2 -50
-8 -57 -14 -8 -6 -14 -8 -14 -4 0 4 -7 2 -15 -5 -8 -7 -15 -9 -15 -5 0 4 -7 2
-15 -5 -8 -7 -13 -16 -10 -20 3 -5 1 -11 -4 -15 -6 -3 -8 4 -6 16 3 16 1 19
-13 14 -9 -4 -26 -10 -37 -13 -11 -2 -26 -10 -33 -15 -7 -6 -24 -12 -38 -13
-14 -2 -44 -12 -67 -22 -23 -11 -52 -23 -64 -27 -13 -3 -23 -11 -23 -16 0 -6
-4 -8 -9 -5 -13 8 -42 -4 -35 -15 3 -5 -2 -6 -10 -3 -9 3 -16 2 -16 -3 0 -5
-10 -9 -21 -10 -12 -1 -29 -9 -38 -17 -15 -14 -20 -16 -41 -16 -5 0 -19 -10
-31 -22 -12 -13 -19 -17 -15 -11 5 9 2 11 -8 7 -9 -3 -13 -10 -10 -15 3 -5 -1
-6 -9 -3 -8 3 -21 -1 -28 -8 -8 -7 -21 -14 -29 -16 -25 -6 -80 -43 -80 -54 0
-6 -6 -8 -14 -5 -8 3 -20 -1 -26 -8 -7 -8 -16 -12 -21 -10 -4 3 -17 -3 -29
-15 -11 -11 -25 -20 -31 -20 -6 0 -56 -25 -111 -56 -76 -44 -98 -60 -93 -73 5
-13 4 -13 -6 -4 -9 9 -16 10 -26 1 -7 -6 -16 -8 -19 -5 -4 3 20 23 52 43 32
20 114 84 183 142 783 652 1566 1044 2241 1121 127 14 400 12 527 -4z m-8910
-479 c269 -47 520 -94 558 -104 85 -24 105 -19 -279 -67 -153 -19 -281 -37
-284 -40 -9 -9 93 -167 174 -269 160 -199 405 -415 644 -566 111 -71 339 -186
464 -236 55 -21 93 -40 85 -42 -48 -9 -479 105 -675 178 -353 132 -575 270
-794 489 -180 181 -284 346 -363 576 -46 135 -53 165 -34 165 8 0 235 -38 504
-84z m7453 -260 c0 -2 -8 -10 -17 -17 -16 -13 -17 -12 -4 4 13 16 21 21 21 13z
m-191 -49 c0 -9 -2 -8 -6 1 -2 6 -10 9 -15 6 -7 -4 -8 -2 -4 5 9 13 26 5 25
-12z m68 17 c-3 -3 -12 -4 -19 -1 -8 3 -5 6 6 6 11 1 17 -2 13 -5z m-422 -84
c-3 -5 -12 -10 -18 -10 -7 0 -6 4 3 10 19 12 23 12 15 0z m-128 -82 c-3 -8 -6
-5 -6 6 -1 11 2 17 5 13 3 -3 4 -12 1 -19z m1213 12 c0 -5 -7 -7 -15 -4 -8 4
-15 8 -15 10 0 2 7 4 15 4 8 0 15 -4 15 -10z m-1466 -93 c-10 -6 -20 -5 -27 3
-9 8 -7 9 8 4 18 -7 19 -6 5 11 -14 17 -14 17 7 4 19 -12 20 -15 7 -22z m3565
19 c9 -10 8 -15 -2 -19 -8 -3 -13 3 -13 14 0 23 0 23 15 5z m-36 -3 c-7 -2
-19 -2 -25 0 -7 3 -2 5 12 5 14 0 19 -2 13 -5z m-762 -26 c-10 -9 -11 -8 -5 6
3 10 9 15 12 12 3 -3 0 -11 -7 -18z m959 -27 c0 -5 -2 -10 -4 -10 -3 0 -8 5
-11 10 -3 6 -1 10 4 10 6 0 11 -4 11 -10z m-4005 -80 c-10 -11 -24 -20 -32
-20 -7 0 -13 -5 -13 -12 0 -6 -3 -8 -6 -5 -9 8 16 38 26 32 4 -3 13 2 20 10 7
8 15 15 18 15 3 0 -3 -9 -13 -20z m25 -4 c0 -2 -8 -10 -17 -17 -16 -13 -17
-12 -4 4 13 16 21 21 21 13z m4175 -36 c-3 -5 -11 -10 -16 -10 -6 0 -7 5 -4
10 3 6 11 10 16 10 6 0 7 -4 4 -10z m-4321 -34 c-8 -20 -21 -21 -21 -1 0 8 4
12 9 9 4 -3 8 0 8 7 0 7 2 10 5 7 3 -3 3 -13 -1 -22z m-34 -10 c0 -2 -8 -10
-17 -17 -16 -13 -17 -12 -4 4 13 16 21 21 21 13z m-20 -41 c5 3 11 2 14 -3 2
-4 -5 -8 -18 -8 -15 0 -22 6 -23 21 -2 18 -1 18 8 2 6 -9 14 -15 19 -12z
m4409 2 c8 -10 7 -14 -2 -14 -8 0 -14 6 -14 14 0 7 1 13 2 13 2 0 8 -6 14 -13z
m69 0 c8 -9 8 -17 0 -27 -8 -12 -9 -12 -4 2 3 10 -2 22 -12 27 -9 6 -12 11 -6
11 6 0 16 -6 22 -13z m42 -31 c0 -2 -7 -7 -16 -10 -8 -3 -12 -2 -9 4 6 10 25
14 25 6z m-4617 -32 c-7 -3 -9 -13 -6 -22 4 -13 3 -14 -5 -3 -5 7 -16 17 -23
22 -10 6 -5 8 16 8 17 0 25 -3 18 -5z m4601 -3 c-9 -9 -34 -9 -34 -1 0 5 9 8
20 7 10 -1 17 -3 14 -6z m-4657 -23 c-3 -8 -6 -5 -6 6 -1 11 2 17 5 13 3 -3 4
-12 1 -19z m54 -75 c13 -16 12 -17 -3 -4 -17 13 -22 21 -14 21 2 0 10 -8 17
-17z m4679 1 c0 -8 -19 -13 -24 -6 -3 5 1 9 9 9 8 0 15 -2 15 -3z m-1683 -30
c-3 -3 -12 -4 -19 -1 -8 3 -5 6 6 6 11 1 17 -2 13 -5z m1160 -9 c0 -8 -4 -12
-9 -9 -5 3 -6 10 -3 15 9 13 12 11 12 -6z m-1091 -7 c4 -7 4 -10 -1 -6 -4 4
-16 3 -26 -3 -12 -6 -19 -6 -19 0 0 5 8 12 18 14 9 3 18 5 19 6 1 0 5 -5 9
-11z m41 6 c-3 -3 -12 -4 -19 -1 -8 3 -5 6 6 6 11 1 17 -2 13 -5z m1280 -10
c-3 -3 -12 -4 -19 -1 -8 3 -5 6 6 6 11 1 17 -2 13 -5z m-160 -10 c-3 -3 -12
-4 -19 -1 -8 3 -5 6 6 6 11 1 17 -2 13 -5z m532 -17 c0 -9 -2 -8 -6 1 -2 6
-10 9 -15 6 -7 -4 -8 -2 -4 5 9 13 26 5 25 -12z m-409 9 c0 -2 -7 -7 -16 -10
-8 -3 -12 -2 -9 4 6 10 25 14 25 6z m-4265 -43 c-1 -13 -6 -27 -10 -31 -5 -4
-5 1 -1 12 3 10 2 24 -4 31 -7 8 -6 12 4 12 9 0 13 -9 11 -24z m4758 0 c-6
-15 -4 -16 8 -6 13 11 15 9 14 -7 -2 -27 -13 -36 -21 -16 -3 9 -11 13 -16 10
-6 -4 -5 3 1 15 14 25 23 28 14 4z m-2246 -9 c-3 -3 -12 -4 -19 -1 -8 3 -5 6
6 6 11 1 17 -2 13 -5z m2096 -9 c-3 -9 -8 -14 -10 -11 -3 3 -2 9 2 15 9 16 15
13 8 -4z m-2057 -17 c3 -4 -1 -5 -10 -4 -8 1 -18 5 -22 8 -3 4 1 5 10 4 8 -1
18 -5 22 -8z m2191 -5 c-4 -3 -1 -13 6 -22 11 -14 10 -14 -5 -2 -21 15 -23 31
-6 31 6 0 8 -3 5 -7z m103 -4 c0 -5 5 -7 12 -3 7 4 8 3 4 -4 -10 -16 -23 -15
-30 3 -3 8 -1 15 4 15 6 0 10 -5 10 -11z m-4764 -46 c-3 -19 -36 -26 -36 -8 0
6 4 10 9 10 5 0 13 3 17 8 11 11 13 9 10 -10z m4699 7 c-3 -5 -14 -10 -23 -10
-15 0 -15 2 -2 10 20 13 33 13 25 0z m-2495 -10 c0 -5 -8 -10 -17 -10 -15 0
-16 2 -3 10 19 12 20 12 20 0z m90 0 c0 -5 -2 -10 -4 -10 -3 0 -8 5 -11 10 -3
6 -1 10 4 10 6 0 11 -4 11 -10z m2450 6 c0 -2 -7 -7 -16 -10 -8 -3 -12 -2 -9
4 6 10 25 14 25 6z m40 -26 c0 -5 -4 -10 -10 -10 -5 0 -10 5 -10 10 0 6 5 10
10 10 6 0 10 -4 10 -10z m70 -4 c0 -2 -6 -9 -14 -15 -11 -9 -16 -9 -22 0 -4 7
-3 9 4 5 6 -3 13 -2 17 4 6 10 15 14 15 6z m45 -46 c-7 -11 8 -14 19 -3 14 14
35 11 29 -4 -5 -13 -2 -14 18 -4 21 11 22 10 7 -2 -10 -8 -17 -16 -15 -18 1
-3 -5 3 -14 12 -11 13 -19 15 -27 7 -12 -12 -35 -1 -27 13 4 5 8 9 11 9 3 0 2
-4 -1 -10z m-4843 -15 c3 3 11 -3 19 -12 13 -17 13 -17 -5 -3 -18 14 -19 13
-12 -5 4 -11 4 -16 0 -12 -4 4 -14 1 -23 -5 -13 -10 -14 -10 -3 2 14 16 16 34
4 26 -5 -3 -9 1 -9 9 0 10 4 12 12 5 7 -5 14 -8 17 -5z m2023 4 c-5 -7 -65
-18 -65 -12 0 5 41 20 56 20 7 0 11 -4 9 -8z m2935 -39 c0 -5 -2 -10 -4 -10
-3 0 -8 5 -11 10 -3 6 -1 10 4 10 6 0 11 -4 11 -10z m60 -10 c0 -5 -6 -12 -12
-16 -7 -4 -10 -4 -6 1 4 4 3 14 -4 22 -8 11 -7 12 6 7 9 -3 16 -10 16 -14z
m-5006 -41 c-3 -5 -10 -7 -15 -3 -5 3 -7 10 -3 15 3 5 10 7 15 3 5 -3 7 -10 3
-15z m5111 -19 c3 -5 1 -10 -4 -10 -6 0 -11 5 -11 10 0 6 2 10 4 10 3 0 8 -4
11 -10z m-3406 -47 c-6 -7 -15 -10 -20 -7 -13 8 -3 21 15 21 12 0 13 -4 5 -14z
m-61 -25 c-6 -16 -21 -14 -24 4 -1 11 3 15 12 11 8 -3 13 -10 12 -15z m-113
-47 c3 -5 2 -12 -3 -15 -5 -3 -9 1 -9 9 0 17 3 19 12 6z m-1294 -85 c-6 -7 -7
-16 -3 -21 4 -4 -3 -2 -15 4 -28 14 -29 19 -5 17 9 0 16 5 14 12 -1 8 2 11 8
7 8 -5 8 -11 1 -19z m1169 20 c0 -2 -7 -7 -16 -10 -8 -3 -12 -2 -9 4 6 10 25
14 25 6z m54 -4 c2 -4 -4 -8 -14 -8 -10 0 -16 4 -14 8 3 4 9 8 14 8 5 0 11 -4
14 -8z m-39 -42 c-3 -5 -12 -10 -18 -10 -7 0 -6 4 3 10 19 12 23 12 15 0z
m-1200 -9 c3 -5 2 -12 -3 -15 -5 -3 -9 1 -9 9 0 17 3 19 12 6z m105 -25 c0 -3
-4 -8 -10 -11 -5 -3 -10 -1 -10 4 0 6 5 11 10 11 6 0 10 -2 10 -4z m941 -29
c-10 -9 -11 -8 -5 6 3 10 9 15 12 12 3 -3 0 -11 -7 -18z m50 0 c-10 -9 -11 -8
-5 6 3 10 9 15 12 12 3 -3 0 -11 -7 -18z m-981 8 c0 -2 -10 -9 -22 -15 -22
-11 -22 -10 -4 4 21 17 26 19 26 11z m907 -27 c-3 -8 -6 -5 -6 6 -1 11 2 17 5
13 3 -3 4 -12 1 -19z m47 3 c3 -5 -2 -15 -12 -22 -15 -12 -16 -12 -5 2 7 9 10
19 6 22 -3 4 -4 7 0 7 3 0 8 -4 11 -9z m-114 -57 c0 -2 -9 0 -20 6 -11 6 -20
13 -20 16 0 2 9 0 20 -6 11 -6 20 -13 20 -16z m50 -6 c0 -6 -6 -5 -15 2 -8 7
-15 14 -15 16 0 2 7 1 15 -2 8 -4 15 -11 15 -16z m-785 2 c-3 -5 -11 -10 -16
-10 -6 0 -7 5 -4 10 3 6 11 10 16 10 6 0 7 -4 4 -10z m746 -27 c-12 -20 -14
-14 -5 12 4 9 9 14 11 11 3 -2 0 -13 -6 -23z m-740 -10 c13 -17 13 -17 -6 -3
-11 8 -22 16 -24 17 -2 2 0 3 6 3 6 0 17 -8 24 -17z m694 -13 c-3 -5 -12 -10
-18 -10 -7 0 -6 4 3 10 19 12 23 12 15 0z m-634 -27 c13 -16 12 -17 -3 -4 -10
7 -18 15 -18 17 0 8 8 3 21 -13z m596 -18 c0 -8 -3 -13 -5 -10 -3 3 -12 -1
-21 -7 -10 -8 -9 -4 3 10 23 26 23 26 23 7z m-487 -39 c0 -11 -19 -15 -25 -6
-3 5 1 10 9 10 9 0 16 -2 16 -4z m393 -11 c-3 -9 -8 -14 -10 -11 -3 3 -2 9 2
15 9 16 15 13 8 -4z m-288 -35 c3 -5 1 -10 -4 -10 -6 0 -11 5 -11 10 0 6 2 10
4 10 3 0 8 -4 11 -10z m289 2 c3 -5 -1 -9 -9 -9 -8 0 -15 4 -15 9 0 4 4 8 9 8
6 0 12 -4 15 -8z m-333 -19 c13 -16 12 -17 -3 -4 -10 7 -18 15 -18 17 0 8 8 3
21 -13z m93 -21 c3 -5 -1 -9 -9 -9 -8 0 -12 4 -9 9 3 4 7 8 9 8 2 0 6 -4 9 -8z
m196 -7 c0 -2 -9 -3 -19 -2 -11 0 -18 5 -15 9 4 6 34 0 34 -7z m-151 -39 c-3
-3 -11 5 -18 17 -13 21 -12 21 5 5 10 -10 16 -20 13 -22z m16 -36 c3 -6 -1 -7
-9 -4 -18 7 -21 14 -7 14 6 0 13 -4 16 -10z m-5515 -168 c732 -428 1653 -674
2429 -648 192 6 229 3 101 -8 -616 -54 -736 -60 -1107 -53 -345 6 -509 19
-773 63 -501 83 -901 255 -1136 489 -77 76 -151 171 -141 181 2 2 105 22 228
43 209 36 226 37 249 23 14 -9 81 -49 150 -90z m6810 -376 c0 -2 -8 -10 -17
-17 -16 -13 -17 -12 -4 4 13 16 21 21 21 13z m-116 -104 c3 -5 -1 -9 -9 -9 -8
0 -12 4 -9 9 3 4 7 8 9 8 2 0 6 -4 9 -8z m-41 -27 c4 -8 1 -17 -5 -21 -7 -4
-8 -3 -4 4 4 7 2 12 -4 12 -6 0 -8 5 -5 10 8 14 12 13 18 -5z m81 -10 c-9 -14
-21 -22 -26 -18 -6 3 -1 14 13 24 31 24 33 24 13 -6z m-109 -23 c-3 -3 -11 0
-18 7 -9 10 -8 11 6 5 10 -3 15 -9 12 -12z m12 -37 c0 -8 -4 -12 -9 -9 -4 3
-8 9 -8 15 0 5 4 9 8 9 5 0 9 -7 9 -15z m43 1 c-7 -7 -13 -7 -20 0 -6 6 -3 10
10 10 13 0 16 -4 10 -10z m-115 -35 c-6 -5 -25 10 -25 20 0 5 6 4 14 -3 8 -7
12 -15 11 -17z m33 15 c-7 -8 -15 -12 -17 -11 -5 6 10 25 20 25 5 0 4 -6 -3
-14z m36 -22 c3 -8 2 -12 -4 -9 -6 3 -10 10 -10 16 0 14 7 11 14 -7z m-51 -43
c-15 -16 -30 -27 -32 -25 -6 6 40 54 51 54 5 0 -3 -13 -19 -29z m-98 -30 c-6
-5 -25 10 -25 20 0 5 6 4 14 -3 8 -7 12 -15 11 -17z m33 15 c-7 -8 -15 -12
-17 -11 -5 6 10 25 20 25 5 0 4 -6 -3 -14z m102 0 c0 -2 -8 -10 -17 -17 -16
-13 -17 -12 -4 4 13 16 21 21 21 13z m-179 -69 c-6 -8 -7 -18 -3 -22 4 -5 1
-5 -6 -1 -10 6 -10 11 -1 22 6 8 14 14 16 14 3 0 0 -6 -6 -13z m-31 -12 c0 -8
-4 -15 -10 -15 -5 0 -7 7 -4 15 4 8 8 15 10 15 2 0 4 -7 4 -15z m160 1 c0 -8
-6 -16 -13 -19 -8 -3 -14 1 -14 9 0 7 4 11 9 8 4 -3 8 0 8 5 0 6 2 11 5 11 3
0 5 -6 5 -14z m-197 -21 c-3 -9 -8 -14 -10 -11 -3 3 -2 9 2 15 9 16 15 13 8
-4z m115 -30 c-3 -3 -9 2 -12 12 -6 14 -5 15 5 6 7 -7 10 -15 7 -18z m-114
-12 c4 -10 4 -14 0 -10 -4 4 -13 2 -20 -4 -8 -7 -14 -7 -19 1 -4 6 -1 9 7 8 7
-2 12 3 11 10 -4 18 14 14 21 -5z m122 -55 c4 -7 4 -10 -1 -6 -4 4 -15 2 -24
-5 -14 -11 -14 -10 -2 6 16 20 18 21 27 5z m-196 -11 c0 -2 -10 -12 -22 -23
l-23 -19 19 23 c18 21 26 27 26 19z m-106 -105 c3 -5 -1 -9 -9 -9 -8 0 -12 4
-9 9 3 4 7 8 9 8 2 0 6 -4 9 -8z m130 -79 c3 -12 -1 -20 -10 -20 -9 0 -11 4
-5 10 5 5 7 17 4 26 -4 9 -3 13 1 10 4 -4 8 -15 10 -26z m51 18 c3 -5 2 -12
-3 -15 -5 -3 -9 1 -9 9 0 17 3 19 12 6z m-235 -56 c0 -2 -6 -8 -13 -14 -10 -8
-14 -7 -14 2 0 8 6 14 14 14 7 0 13 -1 13 -2z m-59 -19 c-10 -11 -8 -16 6 -24
10 -6 14 -14 10 -19 -5 -4 -13 0 -18 10 -6 10 -16 14 -22 10 -7 -3 -3 3 7 15
21 24 36 31 17 8z m-34 -51 c0 -8 -4 -12 -9 -9 -5 3 -6 10 -3 15 9 13 12 11
12 -6z m213 -15 c0 -5 -4 -10 -10 -10 -5 0 -10 5 -10 10 0 6 5 10 10 10 6 0
10 -4 10 -10z m-253 -17 c-4 -3 3 -17 15 -30 12 -13 19 -23 15 -23 -12 0 -46
43 -41 52 3 4 8 8 11 8 4 0 3 -3 0 -7z m246 -7 c3 3 4 -2 3 -12 -2 -10 -8 -19
-15 -20 -7 -2 -7 -1 -1 3 7 3 5 13 -7 26 -12 15 -13 18 -2 9 9 -6 18 -9 22 -6z
m-47 -71 c0 -14 -4 -25 -8 -25 -10 0 -10 13 -2 34 9 23 12 20 10 -9z m-227 6
c2 -1 -4 -10 -14 -21 -14 -15 -15 -20 -4 -20 12 0 12 -2 0 -9 -8 -5 -20 -7
-28 -4 -11 4 -9 9 7 20 16 11 18 18 10 28 -9 10 -7 13 7 10 10 -2 20 -4 22 -4z
m181 -1 c0 -5 -5 -10 -11 -10 -5 0 -7 5 -4 10 3 6 8 10 11 10 2 0 4 -4 4 -10z
m15 -60 c3 -5 1 -10 -4 -10 -6 0 -11 5 -11 10 0 6 2 10 4 10 3 0 8 -4 11 -10z
m-282 -15 c-3 -9 -8 -14 -10 -11 -3 3 -2 9 2 15 9 16 15 13 8 -4z m-18 -35
c-3 -5 -1 -10 5 -10 6 0 8 -4 5 -10 -10 -16 -23 -11 -20 8 5 23 4 22 11 22 3
0 2 -4 -1 -10z m-58 -85 c0 -8 -4 -12 -9 -9 -5 3 -6 10 -3 15 9 13 12 11 12
-6z m-10 -40 c0 -8 -4 -12 -9 -9 -5 3 -6 10 -3 15 9 13 12 11 12 -6z m198 6
c3 -5 2 -12 -3 -15 -5 -3 -9 1 -9 9 0 17 3 19 12 6z m43 -28 c13 10 14 9 1
-10 -9 -16 -16 -19 -21 -10 -4 7 -8 8 -8 4 0 -5 -5 -5 -10 -2 -6 4 -7 11 -4
17 4 6 10 6 17 -1 7 -7 15 -7 25 2z m-268 -13 c0 -5 -10 -14 -22 -20 -21 -10
-22 -10 -5 4 18 14 18 14 0 19 -14 4 -14 5 5 6 12 0 22 -3 22 -9z m-86 -69 c3
-5 -1 -14 -8 -20 -12 -10 -14 -9 -11 6 2 10 4 19 4 21 2 5 10 2 15 -7z m31
-31 c-3 -5 -12 -10 -18 -10 -7 0 -6 4 3 10 19 12 23 12 15 0z m190 -50 c-4 -6
-1 -17 5 -25 10 -12 -11 -47 -106 -182 -664 -947 -1260 -1630 -1769 -2028
-448 -351 -862 -495 -1180 -410 -73 19 -188 72 -252 116 -50 34 -333 269 -333
276 0 2 9 1 20 -2 12 -4 28 -1 38 7 15 12 16 11 3 -4 -12 -16 -11 -18 5 -19
11 -1 22 -1 27 0 4 0 7 -3 7 -7 0 -12 87 -35 101 -26 8 5 9 3 4 -6 -6 -10 -3
-12 13 -8 12 4 20 2 16 -3 -3 -5 3 -9 13 -9 10 0 29 -3 42 -7 19 -5 22 -3 17
8 -4 8 -1 6 6 -3 8 -9 23 -15 34 -14 10 2 25 -2 33 -8 17 -14 376 -15 406 -2
11 5 39 11 63 12 24 2 62 9 85 16 49 14 42 12 87 22 19 5 53 16 75 26 22 9 69
27 105 39 36 12 66 26 68 31 2 6 11 10 20 10 8 0 24 8 35 18 11 9 17 11 13 4
-4 -7 12 -3 38 10 25 12 43 25 40 29 -2 4 1 11 7 15 8 4 9 3 5 -4 -9 -15 -1
-15 24 -2 11 6 17 18 15 29 -5 28 19 46 42 31 16 -10 16 -10 -4 -5 -25 7 -42
-12 -19 -21 15 -6 104 39 118 59 3 6 15 12 24 13 10 2 23 9 29 16 5 8 28 23
50 35 22 11 39 26 38 32 -2 5 3 8 11 5 8 -3 17 0 22 7 4 7 3 10 -4 5 -12 -7
-10 20 3 31 4 4 5 3 1 -4 -13 -23 15 -24 47 -1 17 12 33 26 35 30 2 4 19 17
38 28 19 12 31 27 28 32 -4 7 -2 8 4 4 15 -9 93 45 87 61 -2 7 1 10 8 8 18 -7
149 104 140 118 -3 6 -1 7 5 3 7 -4 24 5 39 20 16 15 21 22 12 15 -15 -11 -67
-26 -58 -17 2 3 9 5 14 6 6 1 19 7 30 13 11 6 26 12 33 13 7 1 24 16 39 33 15
17 33 31 40 31 16 0 44 41 36 53 -4 6 0 8 10 4 18 -7 42 17 32 32 -3 6 0 8 9
5 9 -3 19 5 28 23 7 15 20 28 29 28 15 0 319 295 319 310 0 4 -6 5 -14 2 -8
-3 -17 1 -20 8 -4 11 0 12 18 5 19 -7 28 -4 45 14 12 13 19 29 16 37 -3 8 0
23 8 32 12 17 13 17 13 -2 0 -11 -4 -17 -8 -15 -4 3 -8 0 -8 -5 0 -6 3 -11 7
-11 12 0 43 33 43 47 0 7 6 13 13 13 7 0 24 15 37 33 12 17 36 42 51 55 16 13
29 27 29 32 0 5 20 30 45 56 36 37 43 49 34 60 -9 11 -9 14 0 14 7 0 9 5 5 12
-4 7 -3 8 5 4 6 -4 9 -12 6 -17 -10 -15 4 -10 23 9 17 17 17 20 4 29 -13 8
-13 11 -2 18 9 5 11 4 6 -3 -11 -19 9 -14 38 9 16 12 25 27 22 36 -3 8 -2 12
3 9 14 -9 50 42 46 64 -2 11 0 18 6 15 5 -4 6 -12 3 -18 -4 -7 5 -1 19 12 26
23 38 49 18 36 -5 -3 -12 -1 -16 4 -3 6 3 8 14 6 21 -4 76 50 66 65 -4 6 2 13
12 17 33 12 46 25 31 34 -10 7 -9 9 3 9 9 0 24 9 34 20 10 11 15 20 11 20 -4
0 6 14 23 31 17 17 29 34 26 39 -3 4 5 10 16 13 12 3 18 10 14 16 -3 6 -1 11
4 11 6 0 11 5 11 11 0 5 -4 7 -10 4 -5 -3 -10 -1 -10 5 0 7 7 9 16 6 18 -7 35
10 60 59 l15 30 -21 -25 c-17 -20 -19 -21 -11 -4 5 11 18 27 27 35 12 9 15 9
10 2 -4 -7 -3 -13 2 -13 15 0 23 28 10 32 -11 4 -4 38 7 38 4 0 3 -5 0 -10z
m-61 -64 c-5 -14 -9 -15 -15 -5 -5 8 -3 17 4 21 15 9 19 4 11 -16z m-299 -66
c3 -6 -1 -13 -9 -16 -9 -3 -13 -10 -10 -16 3 -5 13 -4 22 4 12 9 12 7 -2 -9
-17 -21 -43 -23 -31 -2 4 5 0 9 -7 9 -7 1 -2 7 11 14 18 10 20 15 10 19 -8 3
-9 6 -2 6 6 1 15 -4 18 -9z m232 -31 c-2 -10 -6 -21 -10 -25 -3 -4 -4 4 -2 16
3 13 -1 31 -8 39 -11 14 -10 14 5 2 10 -7 16 -21 15 -32z m-27 -39 c0 -5 -2
-10 -4 -10 -3 0 -8 5 -11 10 -3 6 -1 10 4 10 6 0 11 -4 11 -10z m-295 -50 c-3
-5 -12 -10 -18 -10 -7 0 -6 4 3 10 19 12 23 12 15 0z m237 -37 c-6 -2 -9 -10
-6 -15 4 -7 2 -8 -5 -4 -13 9 -5 26 12 25 9 0 8 -2 -1 -6z m-311 -60 c13 -16
12 -17 -3 -4 -17 13 -22 21 -14 21 2 0 10 -8 17 -17z m213 -51 c3 -5 -1 -9 -9
-9 -8 0 -12 4 -9 9 3 4 7 8 9 8 2 0 6 -4 9 -8z m-93 -65 c-10 -9 -11 -8 -5 6
3 10 9 15 12 12 3 -3 0 -11 -7 -18z m-196 -18 c11 -16 1 -19 -13 -3 -7 8 -8
14 -3 14 5 0 13 -5 16 -11z m-100 -88 c3 -5 2 -12 -3 -15 -5 -3 -9 1 -9 9 0
17 3 19 12 6z m228 -35 c-3 -4 -9 -2 -14 5 -13 22 -11 31 5 17 8 -7 12 -17 9
-22z m-279 -42 c20 -8 21 -21 1 -21 -8 0 -12 4 -9 8 2 4 -2 10 -8 12 -7 3 -10
6 -6 6 3 1 13 -2 22 -5z m-90 -149 c-4 -8 -11 -15 -16 -15 -6 0 -5 6 2 15 7 8
14 15 16 15 2 0 1 -7 -2 -15z m-224 -29 c0 -2 -8 -10 -17 -17 -16 -13 -17 -12
-4 4 13 16 21 21 21 13z m235 -6 c3 -6 -1 -7 -9 -4 -18 7 -21 14 -7 14 6 0 13
-4 16 -10z m-235 -36 c0 -8 -19 -13 -24 -6 -3 5 1 9 9 9 8 0 15 -2 15 -3z
m127 -11 c-4 -3 0 -15 10 -25 9 -10 12 -18 7 -18 -12 0 -34 36 -27 44 4 3 9 6
11 6 3 0 2 -3 -1 -7z m-152 -15 c5 4 5 1 1 -6 -6 -10 -11 -10 -22 -1 -8 6 -14
14 -14 16 0 3 6 0 13 -6 8 -6 18 -7 22 -3z m-25 -110 c0 -4 -5 -8 -11 -8 -5 0
-8 4 -5 9 3 5 -1 12 -10 15 -8 3 -12 11 -8 17 5 9 11 6 21 -6 7 -11 13 -22 13
-27z m121 25 c7 -10 9 -15 5 -11 -5 4 -15 3 -22 -3 -11 -9 -13 2 -5 29 2 6 10
1 22 -15z m-171 -18 c5 3 11 1 14 -4 4 -5 -2 -8 -11 -7 -10 2 -18 9 -19 17 -1
9 0 10 3 1 3 -7 8 -10 13 -7z m-12 -40 c-3 -3 -9 2 -12 12 -6 14 -5 15 5 6 7
-7 10 -15 7 -18z m-4 -57 c5 0 13 6 17 14 6 9 9 9 9 1 0 -6 -5 -15 -10 -18 -6
-4 -7 -12 -3 -18 3 -7 -3 -4 -14 6 -11 9 -22 14 -26 11 -3 -3 -3 4 0 17 6 20
7 21 13 5 3 -10 10 -18 14 -18z m116 -44 c0 -7 -4 -15 -9 -18 -5 -4 -7 3 -4
14 3 12 2 20 -3 19 -18 -3 -25 1 -19 11 8 14 35 -6 35 -26z m-74 -3 c-4 -5 -1
-11 5 -13 7 -2 6 -8 -3 -16 -12 -10 -14 -8 -12 11 3 27 3 27 10 27 3 0 3 -4 0
-9z m-22 -49 c3 -5 -1 -9 -9 -9 -8 0 -12 4 -9 9 3 4 7 8 9 8 2 0 6 -4 9 -8z
m-97 -34 c-3 -7 -5 -2 -5 12 0 14 2 19 5 13 2 -7 2 -19 0 -25z m110 -10 c-3
-8 -6 -5 -6 6 -1 11 2 17 5 13 3 -3 4 -12 1 -19z m-64 -3 c-3 -9 -8 -14 -10
-11 -3 3 -2 9 2 15 9 16 15 13 8 -4z m-16 -38 c0 -8 -6 -14 -14 -14 -9 0 -10
4 -2 14 6 7 12 13 14 13 1 0 2 -6 2 -13z m53 -52 c0 -7 -30 -13 -34 -7 -3 4 4
9 15 9 10 1 19 0 19 -2z m-465 -134 c-9 -8 -36 -10 -30 -2 2 4 11 8 20 8 8 0
13 -3 10 -6z m290 -41 c-3 -5 -12 -10 -18 -10 -7 0 -6 4 3 10 19 12 23 12 15
0z m-423 -47 c-6 -2 -9 -10 -6 -15 4 -7 2 -8 -5 -4 -13 9 -5 26 12 25 9 0 8
-2 -1 -6z m63 -3 c-3 -5 -12 -10 -18 -10 -7 0 -6 4 3 10 19 12 23 12 15 0z
m199 -18 c3 -5 -1 -9 -9 -9 -8 0 -12 4 -9 9 3 4 7 8 9 8 2 0 6 -4 9 -8z m-329
-41 c3 -5 2 -12 -3 -15 -5 -3 -9 1 -9 9 0 17 3 19 12 6z m58 -14 c-5 -11 -7
-11 -28 1 -19 11 -18 12 5 8 14 -1 24 -6 23 -9z m252 -45 c-3 -3 -11 0 -18 7
-9 10 -8 11 6 5 10 -3 15 -9 12 -12z m-45 -6 c0 -2 -7 -7 -16 -10 -8 -3 -12
-2 -9 4 6 10 25 14 25 6z m-370 -20 c0 -11 -19 -15 -25 -6 -3 5 1 10 9 10 9 0
16 -2 16 -4z m-85 -46 c11 -5 14 -9 6 -9 -11 -1 -11 -4 -1 -15 10 -13 8 -13
-14 -3 -14 7 -20 14 -15 16 7 2 6 7 -2 12 -18 11 0 10 26 -1z m379 -31 c-3 -5
-10 -7 -15 -4 -5 4 -9 1 -9 -5 0 -6 -5 -8 -11 -5 -6 5 -4 12 8 20 19 14 37 10
27 -6z m-378 -21 c3 -4 -1 -5 -10 -4 -8 1 -18 5 -22 8 -3 4 1 5 10 4 8 -1 18
-5 22 -8z m-191 -78 c3 -6 -1 -7 -9 -4 -18 7 -21 14 -7 14 6 0 13 -4 16 -10z
m-120 -30 c3 -6 -1 -7 -9 -4 -18 7 -21 14 -7 14 6 0 13 -4 16 -10z m445 -10
c0 -5 -2 -10 -4 -10 -3 0 -8 5 -11 10 -3 6 -1 10 4 10 6 0 11 -4 11 -10z
m-1923 -27 c0 -8 -6 -9 -19 -2 -10 5 -18 11 -18 12 0 2 8 3 18 3 10 0 19 -6
19 -13z m123 -18 c0 -2 -9 -3 -19 -2 -11 0 -18 5 -15 9 4 6 34 0 34 -7z m-190
-15 c0 -5 -5 -10 -11 -10 -5 0 -7 5 -4 10 3 6 8 10 11 10 2 0 4 -4 4 -10z
m261 -17 c12 -14 12 -16 0 -9 -9 6 -12 5 -9 -5 3 -8 13 -13 23 -12 12 1 14 -2
7 -9 -7 -7 -17 -5 -32 5 -14 9 -17 17 -11 22 6 3 9 11 6 16 -10 15 2 10 16 -8z
m-31 2 c0 -2 -10 -9 -22 -15 -22 -11 -22 -10 -4 4 21 17 26 19 26 11z m1107
-1 c-3 -3 -12 -4 -19 -1 -8 3 -5 6 6 6 11 1 17 -2 13 -5z m-1330 -26 c-3 -8
-6 -5 -6 6 -1 11 2 17 5 13 3 -3 4 -12 1 -19z m1301 -13 c-3 -3 -9 2 -12 12
-6 14 -5 15 5 6 7 -7 10 -15 7 -18z m-63 -3 c-3 -3 -11 0 -18 7 -9 10 -8 11 6
5 10 -3 15 -9 12 -12z m-338 -58 c-3 -3 -12 -4 -19 -1 -8 3 -5 6 6 6 11 1 17
-2 13 -5z m78 -12 c-3 -3 -11 0 -18 7 -9 10 -8 11 6 5 10 -3 15 -9 12 -12z
m591 -47 c-1 -8 -5 -17 -8 -21 -5 -4 -4 16 1 34 3 9 9 -1 7 -13z m-1351 -64
c-9 -8 -36 -10 -30 -2 2 4 11 8 20 8 8 0 13 -3 10 -6z m1175 -26 c7 -9 8 -15
2 -15 -5 0 -12 7 -16 15 -3 8 -4 15 -2 15 2 0 9 -7 16 -15z m-783 -77 c-3 -8
-6 -5 -6 6 -1 11 2 17 5 13 3 -3 4 -12 1 -19z m503 -13 c0 -11 -29 -11 -33 -1
-4 10 1 12 14 9 10 -3 19 -7 19 -8z m-907 -50 c-7 -21 -12 -19 -10 4 0 11 5
18 9 15 4 -3 5 -11 1 -19z m-56 -190 c0 -8 -4 -12 -9 -9 -5 3 -6 10 -3 15 9
13 12 11 12 -6z m-3 -37 c-3 -4 -12 -8 -20 -8 -8 0 -13 4 -10 8 3 5 12 9 20 9
8 0 13 -4 10 -9z m-157 -50 c-3 -8 -6 -5 -6 6 -1 11 2 17 5 13 3 -3 4 -12 1
-19z m153 -49 c0 -4 -9 -9 -20 -12 -17 -4 -18 -2 -9 14 5 11 7 25 4 32 -4 6 1
3 9 -7 9 -11 16 -23 16 -27z m-26 -109 c-6 -6 -10 -3 -10 10 0 13 4 16 10 10
7 -7 7 -13 0 -20z m-114 10 c0 -5 -5 -10 -11 -10 -5 0 -7 5 -4 10 3 6 8 10 11
10 2 0 4 -4 4 -10z m57 -62 c-3 -8 -6 -5 -6 6 -1 11 2 17 5 13 3 -3 4 -12 1
-19z m53 8 c0 -3 -4 -8 -10 -11 -5 -3 -10 -1 -10 4 0 6 5 11 10 11 6 0 10 -2
10 -4z m-114 -91 c-1 -8 -6 -18 -11 -22 -4 -4 -5 -3 -1 4 3 6 2 14 -4 18 -5 3
-10 13 -10 22 0 12 3 13 14 4 8 -7 13 -18 12 -26z m76 1 c9 -18 8 -19 -3 -6
-8 8 -21 20 -29 27 -13 11 -13 12 3 7 10 -4 22 -16 29 -28z m-47 4 c3 -5 1
-10 -4 -10 -6 0 -11 5 -11 10 0 6 2 10 4 10 3 0 8 -4 11 -10z m-47 -55 c-3 -3
-9 2 -12 12 -6 14 -5 15 5 6 7 -7 10 -15 7 -18z m82 19 c0 -8 -19 -13 -24 -6
-3 5 1 9 9 9 8 0 15 -2 15 -3z m-70 -188 c0 -2 -7 -7 -16 -10 -8 -3 -12 -2 -9
4 6 10 25 14 25 6z m40 -20 c0 -3 -4 -8 -10 -11 -5 -3 -10 -1 -10 4 0 6 5 11
10 11 6 0 10 -2 10 -4z m-68 -41 c-6 -34 -13 -32 -10 4 1 16 5 28 9 26 3 -3 4
-16 1 -30z m-55 -87 c-3 -7 -5 -2 -5 12 0 14 2 19 5 13 2 -7 2 -19 0 -25z m63
16 c0 -8 -19 -13 -24 -6 -3 5 1 9 9 9 8 0 15 -2 15 -3z m-26 -59 c-4 -8 -8
-15 -10 -15 -2 0 -4 7 -4 15 0 8 4 15 10 15 5 0 7 -7 4 -15z m-49 -55 c-3 -5
-11 -10 -16 -10 -6 0 -7 5 -4 10 3 6 11 10 16 10 6 0 7 -4 4 -10z m32 -22 c-3
-7 -5 -2 -5 12 0 14 2 19 5 13 2 -7 2 -19 0 -25z m-4 -68 c-3 -12 -8 -19 -11
-16 -5 6 5 36 12 36 2 0 2 -9 -1 -20z m-19 -66 c3 -8 2 -12 -4 -9 -6 3 -10 10
-10 16 0 14 7 11 14 -7z m-29 -14 c-1 -11 -4 -22 -7 -25 -4 -5 -4 34 1 43 4 8
7 -1 6 -18z m-27 -95 c-3 -3 -9 2 -12 12 -6 14 -5 15 5 6 7 -7 10 -15 7 -18z
m-9 -41 c-9 -11 -9 -14 1 -14 9 0 10 -3 1 -13 -6 -8 -7 -18 -3 -22 4 -5 2 -5
-5 -1 -7 4 -10 14 -7 24 5 14 3 14 -10 -2 -9 -11 -16 -14 -16 -8 0 7 9 20 19
29 11 9 17 21 14 26 -3 6 -1 7 6 3 9 -6 9 -11 0 -22z m-51 -59 c-3 -3 -9 2
-12 12 -6 14 -5 15 5 6 7 -7 10 -15 7 -18z m-43 -95 c3 -5 1 -10 -4 -10 -6 0
-11 5 -11 10 0 6 2 10 4 10 3 0 8 -4 11 -10z m18 -56 c-3 -8 -8 -13 -10 -10
-3 3 -15 -5 -27 -18 -11 -12 -15 -14 -8 -5 8 10 15 26 17 36 2 10 4 19 4 20 1
1 7 0 15 -3 8 -3 12 -12 9 -20z m-20 -59 c-3 -9 -8 -14 -10 -11 -3 3 -2 9 2
15 9 16 15 13 8 -4z m942 -55 c850 -290 1543 -732 1959 -1250 75 -93 194 -271
246 -365 40 -74 28 -63 -38 36 -122 183 -336 416 -517 562 -272 219 -603 393
-932 488 -97 28 -108 34 -245 137 -149 112 -449 316 -575 391 -116 69 -98 69
102 1z m-968 34 c-3 -3 -12 -4 -19 -1 -8 3 -5 6 6 6 11 1 17 -2 13 -5z m-20
-51 c0 -9 -4 -10 -14 -2 -7 6 -13 12 -13 14 0 1 6 2 13 2 8 0 14 -6 14 -14z
m-34 -41 c4 9 6 9 6 1 2 -20 -16 -24 -30 -5 -13 15 -12 16 3 4 13 -10 17 -10
21 0z m-52 -65 c-10 -9 -11 -8 -5 6 3 10 9 15 12 12 3 -3 0 -11 -7 -18z m9
-32 c0 -12 -19 -12 -23 0 -4 9 -1 12 9 8 7 -3 14 -7 14 -8z m2415 -1745 c398
-500 655 -1008 785 -1554 17 -71 30 -135 28 -142 -2 -8 -77 66 -167 164 l-163
177 -73 210 c-204 593 -461 1150 -647 1402 -21 29 -38 55 -38 58 0 11 178
-194 275 -315z m-1678 -2095 c151 -208 330 -459 418 -588 170 -246 239 -349
474 -702 344 -516 326 -485 361 -601 142 -459 265 -1033 311 -1449 14 -137 24
-737 12 -759 -7 -14 -38 44 -145 271 -162 343 -364 799 -518 1163 -235 557
-591 1469 -735 1885 -35 99 -129 366 -209 594 -80 228 -146 417 -146 420 0 9
18 -14 177 -234z m1898 -280 c396 -907 641 -1815 730 -2705 16 -160 32 -529
22 -520 -3 3 -99 128 -215 278 l-209 273 -7 82 c-50 608 -145 1433 -222 1912
-47 296 -124 679 -160 800 -14 45 8 3 61 -120z"/>
<path d="M16745 18350 c-3 -5 -1 -10 4 -10 6 0 11 5 11 10 0 6 -2 10 -4 10 -3
0 -8 -4 -11 -10z"/>
<path d="M19449 18840 c-501 -48 -871 -291 -1078 -707 -105 -210 -145 -392
-145 -658 0 -260 37 -440 134 -642 177 -373 494 -607 926 -684 160 -29 443
-31 589 -5 257 46 499 160 664 313 l62 58 -170 170 -171 169 -37 -35 c-81 -77
-220 -153 -360 -196 -82 -25 -100 -27 -273 -27 -160 0 -196 3 -265 22 -152 42
-269 108 -370 209 -113 113 -190 262 -227 443 -27 127 -21 346 12 465 46 170
123 299 248 417 305 286 847 299 1188 27 l63 -50 163 161 163 160 -50 45
c-290 260 -672 383 -1066 345z"/>
<path d="M21949 18840 c-603 -58 -1030 -447 -1161 -1056 -20 -95 -23 -136 -23
-319 1 -179 4 -225 23 -312 121 -554 488 -914 1027 -1008 207 -35 467 -28 664
20 520 126 871 535 946 1103 103 781 -344 1440 -1055 1556 -121 20 -310 27
-421 16z m386 -470 c113 -28 247 -98 328 -171 268 -242 363 -674 235 -1069
-67 -208 -215 -385 -391 -469 -247 -118 -590 -114 -827 10 -258 134 -402 384
-435 754 -14 156 27 363 105 520 122 249 319 395 595 441 105 18 286 10 390
-16z"/>
<path d="M23800 17490 l0 -1310 920 0 920 0 0 230 0 230 -670 0 -670 0 0 1080
0 1080 -250 0 -250 0 0 -1310z"/>
<path d="M25990 17490 l0 -1310 245 0 245 0 0 1310 0 1310 -245 0 -245 0 0
-1310z"/>
<path d="M26930 17490 l0 -1311 723 4 c794 4 813 5 1002 68 238 79 400 242
460 464 9 33 19 112 22 175 6 140 -9 217 -69 340 -54 113 -160 221 -265 271
l-71 35 56 29 c120 63 222 192 257 326 19 71 19 240 0 337 -19 97 -89 240
-150 309 -93 106 -257 193 -440 234 -97 22 -119 23 -812 26 l-713 4 0 -1311z
m1340 850 c177 -34 300 -162 300 -313 0 -140 -86 -232 -248 -266 -34 -7 -205
-11 -482 -11 l-430 0 0 300 0 300 404 0 c226 0 426 -4 456 -10z m30 -1046 c92
-21 197 -75 253 -129 157 -151 120 -371 -78 -461 -122 -56 -136 -57 -617 -62
l-448 -3 0 335 0 336 413 0 c334 0 424 -3 477 -16z"/>
<path d="M29490 17491 l0 -1311 250 0 250 0 0 440 0 440 230 0 230 0 32 -36
c18 -20 191 -216 383 -437 l351 -402 297 -3 c292 -2 298 -2 295 17 -2 11 -169
208 -373 437 -203 229 -380 429 -392 444 l-23 28 68 16 c37 9 114 40 171 68
91 43 117 62 191 137 71 71 94 102 132 181 55 112 75 184 88 317 44 468 -226
841 -685 946 -85 20 -127 21 -792 24 l-703 4 0 -1310z m1406 826 c29 -9 79
-35 112 -58 164 -109 221 -346 128 -534 -56 -113 -136 -175 -271 -210 -49 -12
-132 -15 -467 -15 l-408 0 0 421 0 420 428 -3 c370 -3 434 -6 478 -21z"/>
<path d="M32010 17490 l0 -1310 245 0 245 0 0 1310 0 1310 -245 0 -245 0 0
-1310z"/>
<path d="M22537 15310 c-132 -34 -199 -144 -153 -254 30 -71 92 -105 236 -127
129 -19 178 -60 154 -127 -24 -69 -168 -91 -255 -40 -25 15 -51 38 -58 52
l-14 25 -48 -24 c-26 -14 -50 -29 -53 -34 -4 -5 9 -29 26 -53 112 -148 422
-141 512 12 14 23 20 52 20 96 0 121 -61 171 -249 204 -143 25 -180 53 -151
112 35 72 189 76 262 7 l21 -20 47 22 c25 13 46 27 46 32 0 24 -46 68 -95 92
-60 30 -180 42 -248 25z"/>
<path d="M23754 15301 c-54 -14 -135 -64 -165 -102 -59 -75 -74 -124 -74 -239
0 -100 2 -108 34 -168 63 -116 151 -165 296 -166 78 0 98 4 153 28 119 55 173
143 180 296 5 115 -16 183 -79 253 -58 67 -129 98 -231 103 -46 2 -97 0 -114
-5z m146 -112 c63 -14 108 -53 137 -117 52 -113 12 -257 -86 -309 -53 -27
-133 -31 -189 -8 -180 76 -170 372 16 429 58 18 65 18 122 5z"/>
<path d="M18610 14983 c-78 -175 -145 -324 -147 -330 -4 -10 13 -13 64 -13
l68 0 27 60 26 60 172 0 172 0 26 -60 27 -60 67 0 c38 0 68 2 68 4 0 4 -244
551 -280 629 -13 25 -17 27 -80 27 l-67 0 -143 -317z m273 30 l55 -128 -59 -3
c-32 -2 -85 -2 -118 0 l-58 3 55 128 c30 70 58 127 62 127 4 0 32 -57 63 -127z"/>
<path d="M19640 15293 c0 -5 53 -153 117 -330 l118 -323 56 0 55 0 42 108 c22
59 53 145 67 192 15 47 30 88 34 93 4 4 17 -26 30 -65 13 -40 45 -131 73 -201
l50 -128 55 3 55 3 114 315 c63 173 114 321 114 328 0 10 -17 12 -67 10 l-68
-3 -13 -40 c-8 -22 -41 -127 -75 -233 l-62 -193 -81 233 -80 233 -44 0 -43 0
-76 -227 c-42 -126 -78 -228 -81 -228 -3 0 -39 104 -79 230 l-75 230 -68 0
c-37 0 -68 -3 -68 -7z"/>
<path d="M21240 14970 l0 -330 245 0 245 0 0 60 0 60 -185 0 -185 0 0 75 0 75
180 0 180 0 0 55 0 55 -180 0 -180 0 0 80 0 80 185 0 185 0 0 60 0 60 -245 0
-245 0 0 -330z"/>
<path d="M24810 14970 l0 -330 65 0 65 0 2 232 3 232 100 -137 c55 -76 106
-137 115 -137 8 1 60 61 115 135 55 74 103 135 107 135 4 0 8 -103 8 -230 l0
-230 60 0 60 0 0 330 0 331 -72 -3 -73 -3 -98 -135 c-55 -74 -102 -136 -105
-137 -4 -1 -52 61 -107 137 l-100 140 -72 0 -73 0 0 -330z"/>
<path d="M26160 14970 l0 -330 245 0 245 0 0 60 0 60 -182 2 -183 3 0 70 0 70
178 3 177 2 0 55 0 55 -177 2 -178 3 0 75 0 75 183 3 182 2 0 60 0 60 -245 0
-245 0 0 -330z"/>
<path d="M27470 14970 l0 -331 213 3 c205 3 214 4 257 28 105 58 121 207 30
284 l-33 27 22 15 c86 61 60 220 -44 274 -47 24 -59 25 -247 28 l-198 4 0
-332z m384 188 c37 -35 41 -61 12 -95 -24 -28 -24 -28 -148 -28 l-123 0 -3 73
-3 72 120 0 c110 0 122 -2 145 -22z m6 -260 c56 -39 58 -89 4 -125 -23 -15
-49 -18 -148 -18 l-121 0 -3 83 -3 82 119 0 c107 0 122 -2 152 -22z"/>
<path d="M28650 14970 l0 -330 65 0 65 0 0 330 0 330 -65 0 -65 0 0 -330z"/>
<path d="M29430 14971 l0 -331 60 0 59 0 3 108 3 107 57 3 56 3 97 -111 98
-110 73 0 c41 0 74 3 74 6 0 6 -22 32 -149 176 l-42 47 38 16 c87 37 130 113
120 217 -7 78 -43 132 -112 167 -47 25 -58 26 -242 29 l-193 4 0 -331z m370
196 c14 -7 33 -29 43 -50 16 -31 17 -42 7 -73 -20 -61 -56 -75 -185 -72 l-110
3 -3 103 -3 102 113 0 c70 0 123 -5 138 -13z"/>
<path d="M30590 14971 l0 -331 163 0 c188 0 239 11 310 65 32 25 55 55 79 102
30 62 33 75 33 163 -1 111 -19 162 -84 233 -71 77 -117 90 -323 95 l-178 4 0
-331z m345 190 c117 -53 157 -210 82 -323 -37 -56 -96 -78 -204 -78 l-93 0 0
210 0 210 88 0 c62 0 98 -6 127 -19z"/>
</g>
</svg>
